HIERARCHY
ROOT SpineBase
{
  OFFSET 0.000000 0.000000 0.000000
  CHANNELS 6 Xposition Yposition Zposition Zrotation Xrotation Yrotation
  JOINT SpineMid
  {
    OFFSET 0.000000 31.059691 -0.000000
    CHANNELS 3 Zrotation Xrotation Yrotation
    JOINT SpineShoulder
    {
      OFFSET 0.126433 23.248175 -0.789490
      CHANNELS 3 Zrotation Xrotation Yrotation
      JOINT Neck
      {
        OFFSET 0.075444 7.747669 -0.600429
        CHANNELS 3 Zrotation Xrotation Yrotation
        JOINT Head
        {
          OFFSET -7.671303 12.465692 1.135289
          CHANNELS 3 Zrotation Xrotation Yrotation
          End Site
          {
            OFFSET 0 0 0
          }
        }
      }
      JOINT ShoulderLeft
      {
        OFFSET -14.838621 -5.140398 8.880185
        CHANNELS 3 Zrotation Xrotation Yrotation
        JOINT ElbowLeft
        {
          OFFSET -2.711474 -27.631425 0.767311
          CHANNELS 3 Zrotation Xrotation Yrotation
          JOINT WristLeft
          {
            OFFSET -0.841057 -23.919992 -6.055877
            CHANNELS 3 Zrotation Xrotation Yrotation
            JOINT HandLeft
            {
              OFFSET -1.270397 -5.531782 0.453766
              CHANNELS 3 Zrotation Xrotation Yrotation
              JOINT HandTipLeft
              {
                OFFSET 0.991594 -5.045940 -1.559212
                CHANNELS 3 Zrotation Xrotation Yrotation
                End Site
                {
                  OFFSET 0 0 0
                }
              }
              JOINT ThumbLeft
              {
                OFFSET -1.946604 -2.179027 -2.673610
                CHANNELS 3 Zrotation Xrotation Yrotation
                End Site
                {
                  OFFSET 0 0 0
                }
              }
            }
          }
        }
      }
      JOINT ShoulderRight
      {
        OFFSET 13.618436 -0.140346 -7.603211
        CHANNELS 3 Zrotation Xrotation Yrotation
        JOINT ElbowRight
        {
          OFFSET 9.514130 -20.591150 -4.674771
          CHANNELS 3 Zrotation Xrotation Yrotation
          JOINT WristRight
          {
            OFFSET 0.956787 -22.445973 -9.376957
            CHANNELS 3 Zrotation Xrotation Yrotation
            JOINT HandRight
            {
              OFFSET -1.905967 -5.321461 -3.107807
              CHANNELS 3 Zrotation Xrotation Yrotation
              JOINT HandTipRight
              {
                OFFSET -1.922335 -6.984539 -1.382005
                CHANNELS 3 Zrotation Xrotation Yrotation
                End Site
                {
                  OFFSET 0 0 0
                }
              }
              JOINT ThumbRight
              {
                OFFSET -4.887381 -2.216923 6.424039
                CHANNELS 3 Zrotation Xrotation Yrotation
                End Site
                {
                  OFFSET 0 0 0
                }
              }
            }
          }
        }
      }
    }
  }
  JOINT HipLeft
  {
    OFFSET -6.517597 0.591011 0.267501
    CHANNELS 3 Zrotation Xrotation Yrotation
    JOINT KneeLeft
    {
      OFFSET -2.664483 -35.233083 -5.379599
      CHANNELS 3 Zrotation Xrotation Yrotation
      JOINT AnkleLeft
      {
        OFFSET 1.451008 -36.310564 -0.027255
        CHANNELS 3 Zrotation Xrotation Yrotation
        JOINT FootLeft
        {
          OFFSET -4.050877 -6.995528 -4.572316
          CHANNELS 3 Zrotation Xrotation Yrotation
          End Site
          {
            OFFSET 0 0 0
          }
        }
      }
    }
  }
  JOINT HipRight
  {
    OFFSET 7.132410 2.440798 -6.793714
    CHANNELS 3 Zrotation Xrotation Yrotation
    JOINT KneeRight
    {
      OFFSET 6.905465 -32.702846 -12.701624
      CHANNELS 3 Zrotation Xrotation Yrotation
      JOINT AnkleRight
      {
        OFFSET 5.411317 -35.825804 -3.248754
        CHANNELS 3 Zrotation Xrotation Yrotation
        JOINT FootRight
        {
          OFFSET -0.196514 -6.604289 -8.070219
          CHANNELS 3 Zrotation Xrotation Yrotation
          End Site
          {
            OFFSET 0 0 0
          }
        }
      }
    }
  }
}
MOTION
Frames: 13
Frame Time: 0.033333
-29.353459 100.422728 315.453743 -0.000000 -0.000000 27.352744 0.000000 0.000000 -27.352744 -0.000000 0.000000 0.000000 -0.000000 0.000000 0.000000 0.000000 0.000000 0.000000 -0.000000 0.000000 0.000000 -0.000000 0.000000 0.000000 -0.000000 0.000000 0.000000 -0.000000 0.000000 0.000000 0.000000 0.000000 0.000000 0.000000 0.000000 0.000000 -0.000000 0.000000 0.000000 -0.000000 0.000000 0.000000 -0.000000 0.000000 0.000000 -0.000000 0.000000 0.000000 0.000000 0.000000 0.000000 0.000000 0.000000 0.000000 0.000000 0.000000 -27.352744 -0.000000 0.000000 0.000000 -0.000000 0.000000 0.000000 0.000000 0.000000 0.000000 0.000000 0.000000 -27.352744 -0.000000 0.000000 0.000000 -0.000000 0.000000 0.000000 0.000000 0.000000 0.000000
-29.258295 100.555511 315.005412 0.064225 0.260807 27.446922 -0.177210 -0.201847 -27.447381 -0.000000 0.000000 0.000000 -0.000000 0.000000 0.000000 0.000000 0.000000 0.000000 -0.000000 0.000000 0.000000 -0.050719 -1.180543 0.053969 -1.446986 6.362648 -1.270940 2.533327 -8.001059 0.662822 0.000000 0.000000 0.000000 0.000000 0.000000 0.000000 -0.000000 0.000000 0.000000 -0.000000 0.000000 0.000000 -1.092221 -4.175304 2.132059 2.273492 5.176747 -2.792498 0.000000 0.000000 0.000000 0.000000 0.000000 0.000000 -0.177210 -0.201847 -27.447381 -0.000000 0.000000 0.000000 -0.105907 1.791659 -0.956388 0.000000 0.000000 0.000000 -0.177210 -0.201847 -27.447381 -0.000000 0.000000 0.000000 -0.000000 0.000000 0.000000 0.000000 0.000000 0.000000
-29.203509 100.710674 314.565687 0.065678 0.584094 27.462584 -0.327652 -0.487982 -27.464314 -0.000000 0.000000 0.000000 -0.000000 0.000000 0.000000 0.000000 0.000000 0.000000 -0.000000 0.000000 0.000000 -0.049680 -1.955274 0.080834 -2.344024 12.246424 -2.356750 4.443358 -15.044849 1.785373 0.000000 0.000000 0.000000 0.000000 0.000000 0.000000 -1.016583 0.723724 0.573143 0.299762 0.018694 -0.234201 -0.964602 -8.520653 3.410162 4.176588 9.465814 -5.224337 0.000000 0.000000 0.000000 0.000000 0.000000 0.000000 -0.310725 -1.484149 -27.470219 -1.185733 0.382116 -0.001569 0.425090 3.906466 -1.726748 0.000000 0.000000 0.000000 -0.886824 -1.512857 -27.712448 0.018466 1.167303 0.238183 -0.000000 0.000000 0.000000 0.000000 0.000000 0.000000
-29.189101 100.888215 314.134569 0.004173 0.970264 27.399881 -0.450252 -0.859487 -27.403294 -0.000000 0.000000 0.000000 -0.000000 0.000000 0.000000 0.000000 0.000000 0.000000 -0.817512 0.046869 -0.026949 0.819468 -2.391755 0.110356 -2.589716 17.380569 -3.337347 5.532641 -20.903884 3.098041 0.000000 0.000000 0.000000 0.000000 0.000000 0.000000 -1.640583 1.054485 0.878781 0.568179 -0.059403 -0.370091 -0.741619 -11.911985 4.483282 5.629743 13.026092 -7.258138 0.000000 0.000000 0.000000 0.000000 0.000000 0.000000 -0.408439 -2.440297 -27.414193 -1.690179 0.629324 0.008144 0.377279 5.624577 -2.339012 0.000000 0.000000 0.000000 -1.255379 -2.355707 -27.776718 0.015164 1.698861 0.350610 0.622740 -0.198445 -0.755702 0.000000 0.000000 0.000000
-29.215071 101.088136 313.712059 -0.120578 1.419780 27.258602 -0.026420 -0.277840 -27.263044 -0.117280 0.102564 -0.016894 0.134587 -1.263215 0.024195 0.000000 0.000000 0.000000 -0.876913 -0.860702 -0.062107 1.114815 -2.763810 0.131989 -2.121083 21.523706 -4.278483 5.565194 -25.422959 4.295518 0.000000 0.000000 0.000000 0.000000 0.000000 0.000000 -2.205881 0.104366 1.171883 0.922067 -0.214863 -0.524339 -0.125037 -14.841743 5.265037 6.554306 16.003224 -8.849841 0.000000 0.000000 0.000000 0.000000 0.000000 0.000000 -0.462180 -3.537716 -27.279802 -2.138773 0.910975 0.024197 0.150126 7.196148 -2.784973 0.000000 0.000000 0.000000 -1.567291 -3.255414 -27.762250 0.003593 2.191633 0.457965 0.714988 -0.313183 -0.865464 0.000000 0.000000 0.000000
-29.281419 101.310436 313.298155 -0.308957 1.933145 27.038198 -0.036707 -0.314376 -27.047681 -0.169639 0.213097 -0.032693 -0.879834 -1.927262 0.078044 0.000000 0.000000 0.000000 -0.796354 -0.918799 -0.099242 1.421568 -2.937474 0.149279 -0.937781 24.493166 -5.203329 4.335186 -28.509993 5.097018 0.000000 0.000000 0.000000 0.000000 0.000000 0.000000 -2.747046 -0.184978 1.488232 1.367235 -0.458837 -0.701301 0.878424 -17.390355 5.811921 6.866646 18.528567 -9.946795 0.000000 0.000000 0.000000 0.000000 0.000000 0.000000 -0.466207 -4.774257 -27.064339 -2.532683 1.224230 0.045678 -0.260286 8.628077 -3.065046 0.000000 0.000000 0.000000 -1.817009 -4.211315 -27.666521 -0.016086 2.642987 0.559802 0.749629 -0.451623 -0.904153 0.000000 0.000000 0.000000
-29.432112 101.597901 312.846109 -0.624243 2.612221 26.647649 -0.048761 -0.342165 -26.662746 -0.266111 0.417564 -0.059484 -1.389228 -2.147806 0.559157 0.000000 0.000000 0.000000 -0.521993 -0.955665 -0.143793 1.946251 -2.567178 0.120138 0.997812 25.348303 -5.945747 1.914047 -28.608715 5.388626 0.000000 0.000000 0.000000 0.000000 0.000000 0.000000 -3.209824 -0.716630 1.833583 1.841918 -1.017716 -0.905953 3.104429 -20.813566 6.422712 5.428505 21.724128 -10.245914 0.000000 0.000000 0.000000 0.000000 0.000000 0.000000 -0.436575 -6.502039 -26.667019 -2.878248 1.847694 0.073635 -1.265361 10.357900 -3.178719 0.000000 0.000000 0.000000 -1.990794 -5.477115 -27.445312 -0.097581 3.173353 0.703403 0.721605 -0.544476 -0.867340 0.000000 0.000000 0.000000
-29.609688 101.898787 312.418572 -0.985623 3.338680 26.242899 -0.060112 -0.371022 -26.260204 -0.352224 0.653856 -0.086968 -2.179701 -2.462350 1.038976 0.000000 0.000000 0.000000 -0.165443 -0.909194 -0.191558 2.400549 -2.387864 0.121137 3.100324 25.600020 -6.545035 -2.239878 -29.527206 4.853101 0.000000 0.000000 0.000000 0.000000 0.000000 0.000000 -3.712074 -1.388557 2.147995 2.439346 -1.599956 -1.126306 5.679609 -23.023116 6.502701 3.612301 22.643750 -9.406549 0.000000 0.000000 0.000000 0.000000 0.000000 0.000000 -0.328336 -8.243738 -26.248266 -3.166537 2.388485 0.104208 -2.154486 11.798118 -3.234759 0.000000 0.000000 0.000000 -2.078971 -6.699908 -27.177554 -0.171907 3.585157 0.819711 0.644719 -0.676055 -0.769579 0.000000 0.000000 0.000000
-29.784671 102.198254 311.992577 -1.349090 4.098267 25.793843 -0.073286 -0.400583 -25.808892 -0.420992 0.903054 -0.112258 -3.138008 -2.752005 1.553500 0.000000 0.000000 0.000000 0.243591 -0.827722 -0.236915 2.610157 -1.880065 0.152455 6.980224 24.815515 -7.130637 -8.219290 -29.123022 3.643165 0.000000 0.000000 0.000000 0.000000 0.000000 0.000000 -4.362334 -2.128645 2.452324 3.331356 -2.006046 -1.415776 8.068218 -24.979934 6.569915 1.780125 25.869567 -9.111311 0.000000 0.000000 0.000000 0.000000 0.000000 0.000000 -0.183390 -9.894234 -25.774749 -3.326042 2.718594 0.123770 -2.888290 12.593857 -3.076053 0.000000 0.000000 0.000000 -2.168585 -7.846695 -26.820852 -0.184839 3.904108 0.891280 0.548729 -0.996295 -0.643033 0.000000 0.000000 0.000000
-29.949045 102.440192 311.707920 -1.701636 4.712762 25.393815 -0.040503 -0.299280 -25.403161 -0.484416 1.132872 -0.136228 -4.079262 -3.307054 1.852342 0.000000 0.000000 0.000000 0.713623 -0.676258 -0.274134 2.560284 -1.297119 0.220442 9.982365 21.775555 -6.669141 -14.545822 -26.801489 2.122563 0.000000 0.000000 0.000000 0.000000 0.000000 0.000000 -5.012453 -2.933990 2.687062 4.456155 -2.195409 -1.737144 9.358473 -25.273294 6.216432 0.167508 25.886933 -7.958674 0.000000 0.000000 0.000000 0.000000 0.000000 0.000000 0.172462 -11.069095 -25.345685 -3.551320 2.566519 0.156514 -3.616300 13.212757 -2.696656 0.000000 0.000000 0.000000 -2.129055 -8.615363 -26.424172 -0.140244 3.007127 0.743454 0.379308 -0.317489 -0.272652 0.000000 0.000000 0.000000
-30.081320 102.650103 311.452586 -2.012689 5.214438 24.934207 -0.080200 -0.334103 -24.938198 -0.500857 1.103340 -0.153617 -4.956851 -3.580844 1.993547 0.000000 0.000000 0.000000 1.200815 -0.142041 -0.298199 2.112605 -0.654715 0.321975 13.841975 19.415765 -6.296021 -21.574242 -24.647868 0.767790 0.000000 0.000000 0.000000 0.000000 0.000000 0.000000 -5.764805 -3.192451 2.961424 5.596081 -2.372813 -2.065670 9.357075 -24.294969 5.665959 0.779294 26.064244 -8.306224 0.000000 0.000000 0.000000 0.000000 0.000000 0.000000 0.516335 -11.885130 -24.847261 -3.681777 2.254669 0.174376 -4.281773 13.335243 -2.091564 0.000000 0.000000 0.000000 -2.067942 -9.123140 -25.907001 0.266824 2.646641 0.594217 -0.105696 -0.256849 0.056770 0.000000 0.000000 0.000000
-30.149191 102.847065 311.245512 -2.281234 5.605140 24.578348 -0.176414 -0.354165 -24.582019 -0.496684 0.907135 -0.170844 -5.448876 -3.671521 2.075528 0.000000 0.000000 0.000000 1.485144 0.638559 -0.336155 1.963809 -0.247544 0.423075 15.705402 16.974061 -5.527278 -26.878001 -24.726729 -0.595581 0.000000 0.000000 0.000000 0.000000 0.000000 0.000000 -6.213839 -3.318141 3.128616 6.329072 -2.347159 -2.215155 8.832293 -22.653834 4.969119 1.149207 23.252475 -7.606500 0.000000 0.000000 0.000000 0.000000 0.000000 0.000000 0.608220 -12.363279 -24.451652 -3.508324 2.007659 0.141476 -3.998232 13.238033 -2.167030 0.000000 0.000000 0.000000 -2.099890 -9.422981 -25.447937 0.820324 2.273341 0.388860 -0.498602 -0.124339 0.235346 0.000000 0.000000 0.000000
-30.174667 102.871888 311.249150 -2.407557 5.500716 24.439851 -0.198298 -0.585191 -24.441443 -0.342618 0.443791 -0.158799 -5.659289 -4.028355 1.333615 0.000000 0.000000 0.000000 1.318092 1.885924 -0.401573 1.759390 -0.128740 0.510071 16.652524 15.849662 -5.164420 -28.488241 -24.926784 -1.127463 0.000000 0.000000 0.000000 0.000000 0.000000 0.000000 -7.225170 -2.554580 3.365610 7.392629 -2.190836 -2.444637 6.553659 -21.826286 5.429556 3.562693 21.431547 -8.704798 0.000000 0.000000 0.000000 0.000000 0.000000 0.000000 0.670654 -11.871480 -24.302499 -3.046962 1.467139 0.081419 -3.461728 13.048242 -2.481231 0.000000 0.000000 0.000000 -2.017087 -9.122850 -25.181727 1.281753 1.971854 0.212798 -0.860709 -0.864693 0.446536 0.000000 0.000000 0.000000
